<svg width="41" height="40" viewBox="0 0 41 40" fill="none" xmlns="http://www.w3.org/2000/svg">
<g clip-path="url(#clip0_0_1)">
<path fill-rule="evenodd" clip-rule="evenodd" d="M21 19.3846C24.0588 19.3846 26.1333 17.1719 26.1333 14.9231C26.1333 12.6743 24.0588 10.4615 21 10.4615C17.9412 10.4615 15.8667 12.6743 15.8667 14.9231C15.8667 17.1719 17.9412 19.3846 21 19.3846ZM28.3333 14.9231C28.3333 18.1608 25.814 20.8614 22.4667 21.4815V23.8462H29.8V26.0769H22.4667V32.7692H19.5334V26.0769H12.2V23.8462H19.5334V21.4815C16.1861 20.8615 13.6667 18.1608 13.6667 14.9231C13.6667 11.227 16.9499 8.23077 21 8.23077C25.0501 8.23077 28.3333 11.227 28.3333 14.9231Z" fill="#E14D66"/>
<mask id="mask0_0_1" style="mask-type:luminance" maskUnits="userSpaceOnUse" x="10" y="6" width="22" height="29">
<path d="M32 6H10V35H32V6Z" fill="white"/>
<path fill-rule="evenodd" clip-rule="evenodd" d="M21 19.3846C24.0588 19.3846 26.1333 17.1719 26.1333 14.9231C26.1333 12.6743 24.0588 10.4615 21 10.4615C17.9412 10.4615 15.8667 12.6743 15.8667 14.9231C15.8667 17.1719 17.9412 19.3846 21 19.3846ZM28.3333 14.9231C28.3333 18.1608 25.814 20.8614 22.4667 21.4815V23.8462H29.8V26.0769H22.4667V32.7692H19.5334V26.0769H12.2V23.8462H19.5334V21.4815C16.1861 20.8615 13.6667 18.1608 13.6667 14.9231C13.6667 11.227 16.9499 8.23077 21 8.23077C25.0501 8.23077 28.3333 11.227 28.3333 14.9231Z" fill="black"/>
</mask>
<g mask="url(#mask0_0_1)">
<path d="M22.4667 21.4815L22.0713 19.2871C21.0261 19.4807 20.2667 20.4041 20.2667 21.4815H22.4667ZM22.4667 23.8462H20.2667C20.2667 25.0782 21.2517 26.0769 22.4667 26.0769V23.8462ZM29.8 23.8462H32C32 22.6141 31.015 21.6154 29.8 21.6154V23.8462ZM29.8 26.0769V28.3077C31.015 28.3077 32 27.3089 32 26.0769H29.8ZM22.4667 26.0769V23.8462C21.2517 23.8462 20.2667 24.8449 20.2667 26.0769H22.4667ZM22.4667 32.7692V35C23.6817 35 24.6667 34.0013 24.6667 32.7692H22.4667ZM19.5333 32.7692H17.3333C17.3333 34.0013 18.3183 35 19.5333 35V32.7692ZM19.5333 26.0769H21.7333C21.7333 24.8449 20.7484 23.8462 19.5333 23.8462V26.0769ZM12.2 26.0769H10C10 27.3089 10.985 28.3077 12.2 28.3077V26.0769ZM12.2 23.8462V21.6154C10.985 21.6154 10 22.6141 10 23.8462H12.2ZM19.5333 23.8462V26.0769C20.7484 26.0769 21.7333 25.0782 21.7333 23.8462H19.5333ZM19.5333 21.4815H21.7333C21.7333 20.4041 20.974 19.4807 19.9287 19.2871L19.5333 21.4815ZM23.9333 14.9231C23.9333 15.7535 23.0361 17.1538 21 17.1538V21.6154C25.0816 21.6154 28.3333 18.5902 28.3333 14.9231H23.9333ZM21 12.6923C23.0361 12.6923 23.9333 14.0926 23.9333 14.9231H28.3333C28.3333 11.256 25.0816 8.23077 21 8.23077V12.6923ZM18.0667 14.9231C18.0667 14.0926 18.9639 12.6923 21 12.6923V8.23077C16.9184 8.23077 13.6667 11.256 13.6667 14.9231H18.0667ZM21 17.1538C18.9639 17.1538 18.0667 15.7535 18.0667 14.9231H13.6667C13.6667 18.5902 16.9184 21.6154 21 21.6154V17.1538ZM22.8621 23.676C27.0698 22.8965 30.5333 19.418 30.5333 14.9231H26.1333C26.1333 16.9035 24.5581 18.8264 22.0713 19.2871L22.8621 23.676ZM24.6667 23.8462V21.4815H20.2667V23.8462H24.6667ZM22.4667 26.0769H29.8V21.6154H22.4667V26.0769ZM27.6 23.8462V26.0769H32V23.8462H27.6ZM29.8 23.8462H22.4667V28.3077H29.8V23.8462ZM24.6667 32.7692V26.0769H20.2667V32.7692H24.6667ZM19.5333 35H22.4667V30.5385H19.5333V35ZM17.3333 26.0769V32.7692H21.7333V26.0769H17.3333ZM19.5333 23.8462H12.2V28.3077H19.5333V23.8462ZM14.4 26.0769V23.8462H10V26.0769H14.4ZM12.2 26.0769H19.5333V21.6154H12.2V26.0769ZM17.3333 21.4815V23.8462H21.7333V21.4815H17.3333ZM11.4667 14.9231C11.4667 19.418 14.9302 22.8965 19.138 23.676L19.9287 19.2871C17.4419 18.8264 15.8667 16.9035 15.8667 14.9231H11.4667ZM21 6C15.9586 6 11.4667 9.77973 11.4667 14.9231H15.8667C15.8667 12.6743 17.9412 10.4615 21 10.4615V6ZM30.5333 14.9231C30.5333 9.77973 26.0413 6 21 6V10.4615C24.0588 10.4615 26.1333 12.6743 26.1333 14.9231H30.5333Z" fill="#631E29" fill-opacity="0.5"/>
</g>
</g>
<rect x="0.976685" y="0.186035" width="4.37209" height="4.37209" fill="#343F45"/>
<rect x="0.976685" y="35.1628" width="4.37209" height="4.37209" fill="#343F45"/>
<rect x="35.9534" y="0.186035" width="4.37209" height="4.37209" fill="#343F45"/>
<rect x="35.9534" y="35.1628" width="4.37209" height="4.37209" fill="#343F45"/>
<defs>
<clipPath id="clip0_0_1">
<rect width="22" height="29" fill="white" transform="translate(10 6)"/>
</clipPath>
</defs>
</svg>
