<svg width="41" height="40" viewBox="0 0 41 40" fill="none" xmlns="http://www.w3.org/2000/svg">
<g clip-path="url(#clip0_0_1)">
<path fill-rule="evenodd" clip-rule="evenodd" d="M32.5834 20.5V8.41666H20.5V10.8333H27.75L19.4412 19.1421C18.3417 18.4704 17.0494 18.0833 15.6667 18.0833C11.6626 18.0833 8.41669 21.3293 8.41669 25.3333C8.41669 29.3374 11.6626 32.5833 15.6667 32.5833C19.6707 32.5833 22.9167 29.3374 22.9167 25.3333C22.9167 23.9506 22.5296 22.6583 21.8579 21.5588L30.1667 13.25V20.5H32.5834ZM20.5 25.3333C20.5 28.0027 18.3361 30.1667 15.6667 30.1667C12.9973 30.1667 10.8334 28.0027 10.8334 25.3333C10.8334 22.6639 12.9973 20.5 15.6667 20.5C18.3361 20.5 20.5 22.6639 20.5 25.3333Z" fill="#80CAD7"/>
<mask id="mask0_0_1" style="mask-type:luminance" maskUnits="userSpaceOnUse" x="6" y="6" width="29" height="29">
<path d="M35 6H6V35H35V6Z" fill="white"/>
<path fill-rule="evenodd" clip-rule="evenodd" d="M32.5834 20.5V8.41666H20.5V10.8333H27.75L19.4412 19.1421C18.3417 18.4704 17.0494 18.0833 15.6667 18.0833C11.6626 18.0833 8.41669 21.3293 8.41669 25.3333C8.41669 29.3374 11.6626 32.5833 15.6667 32.5833C19.6707 32.5833 22.9167 29.3374 22.9167 25.3333C22.9167 23.9506 22.5296 22.6583 21.8579 21.5588L30.1667 13.25V20.5H32.5834ZM20.5 25.3333C20.5 28.0027 18.3361 30.1667 15.6667 30.1667C12.9973 30.1667 10.8334 28.0027 10.8334 25.3333C10.8334 22.6639 12.9973 20.5 15.6667 20.5C18.3361 20.5 20.5 22.6639 20.5 25.3333Z" fill="black"/>
</mask>
<g mask="url(#mask0_0_1)">
<path d="M32.5833 8.41667H35C35 7.08198 33.9181 6 32.5833 6V8.41667ZM32.5833 20.5V22.9167C33.9181 22.9167 35 21.8347 35 20.5H32.5833ZM20.5 8.41667V6C19.1653 6 18.0833 7.08198 18.0833 8.41667H20.5ZM20.5 10.8333H18.0833C18.0833 12.168 19.1653 13.25 20.5 13.25V10.8333ZM27.75 10.8333L29.4589 12.5422C30.15 11.851 30.3569 10.8116 29.9827 9.90852C29.6087 9.00546 28.7274 8.41667 27.75 8.41667V10.8333ZM19.4412 19.1421L18.1812 21.2044C19.1337 21.7863 20.3608 21.6402 21.15 20.851L19.4412 19.1421ZM21.8579 21.5588L20.149 19.85C19.3598 20.6392 19.2137 21.8663 19.7956 22.8188L21.8579 21.5588ZM30.1667 13.25H32.5833C32.5833 12.2726 31.9946 11.3913 31.0915 11.0173C30.1884 10.6432 29.149 10.85 28.4578 11.5412L30.1667 13.25ZM30.1667 20.5H27.75C27.75 21.8347 28.832 22.9167 30.1667 22.9167V20.5ZM30.1667 8.41667V20.5H35V8.41667H30.1667ZM20.5 10.8333H32.5833V6H20.5V10.8333ZM22.9167 10.8333V8.41667H18.0833V10.8333H22.9167ZM27.75 8.41667H20.5V13.25H27.75V8.41667ZM21.15 20.851L29.4589 12.5422L26.0412 9.12448L17.7323 17.4333L21.15 20.851ZM20.7011 17.0799C19.2331 16.183 17.5065 15.6667 15.6667 15.6667V20.5C16.5923 20.5 17.4504 20.7578 18.1812 21.2044L20.7011 17.0799ZM15.6667 15.6667C10.3279 15.6667 6 19.9946 6 25.3333H10.8333C10.8333 22.664 12.9973 20.5 15.6667 20.5V15.6667ZM6 25.3333C6 30.672 10.3279 35 15.6667 35V30.1667C12.9973 30.1667 10.8333 28.0027 10.8333 25.3333H6ZM15.6667 35C21.0054 35 25.3333 30.672 25.3333 25.3333H20.5C20.5 28.0027 18.336 30.1667 15.6667 30.1667V35ZM25.3333 25.3333C25.3333 23.4935 24.817 21.7669 23.9201 20.2989L19.7956 22.8188C20.2422 23.5496 20.5 24.4077 20.5 25.3333H25.3333ZM28.4578 11.5412L20.149 19.85L23.5667 23.2677L31.8755 14.9588L28.4578 11.5412ZM32.5833 20.5V13.25H27.75V20.5H32.5833ZM32.5833 18.0833H30.1667V22.9167H32.5833V18.0833ZM15.6667 32.5833C19.6707 32.5833 22.9167 29.3374 22.9167 25.3333H18.0833C18.0833 26.668 17.0013 27.75 15.6667 27.75V32.5833ZM8.41667 25.3333C8.41667 29.3374 11.6626 32.5833 15.6667 32.5833V27.75C14.332 27.75 13.25 26.668 13.25 25.3333H8.41667ZM15.6667 18.0833C11.6626 18.0833 8.41667 21.3293 8.41667 25.3333H13.25C13.25 23.9987 14.332 22.9167 15.6667 22.9167V18.0833ZM22.9167 25.3333C22.9167 21.3293 19.6707 18.0833 15.6667 18.0833V22.9167C17.0013 22.9167 18.0833 23.9987 18.0833 25.3333H22.9167Z" fill="#142D43" fill-opacity="0.5"/>
</g>
</g>
<rect x="0.976685" y="0.186035" width="4.37209" height="4.37209" fill="#343F45"/>
<rect x="0.976685" y="35.1628" width="4.37209" height="4.37209" fill="#343F45"/>
<rect x="35.9534" y="0.186035" width="4.37209" height="4.37209" fill="#343F45"/>
<rect x="35.9534" y="35.1628" width="4.37209" height="4.37209" fill="#343F45"/>
<defs>
<clipPath id="clip0_0_1">
<rect width="29" height="29" fill="white" transform="translate(6 6)"/>
</clipPath>
</defs>
</svg>
