<svg xmlns="http://www.w3.org/2000/svg" width="110" height="144" fill="none"><mask id="a" fill="#fff"><path fill-rule="evenodd" d="M0 104c0-30.376 24.624-55 55-55s55 24.624 55 55c0 .212-.001.424-.004.636.003.121.004.242.004.364v21c0 9.684-7.648 17.582-17.234 17.984l-.017.016H17.25l-.016-.016C7.648 143.582 0 135.684 0 126v-21c0-.122.001-.243.004-.364A56.178 56.178 0 0 1 0 104Z" clip-rule="evenodd"/></mask><path fill="#FFFEE6" fill-rule="evenodd" d="M0 104c0-30.376 24.624-55 55-55s55 24.624 55 55c0 .212-.001.424-.004.636.003.121.004.242.004.364v21c0 9.684-7.648 17.582-17.234 17.984l-.017.016H17.25l-.016-.016C7.648 143.582 0 135.684 0 126v-21c0-.122.001-.243.004-.364A56.178 56.178 0 0 1 0 104Z" clip-rule="evenodd"/><path fill="#000" d="m109.996 104.636-7.999-.091-.001.125.002.125 7.998-.159Zm-17.23 39.348-.334-7.993-2.987.125-2.172 2.053 5.493 5.815Zm-.017.016v8h3.182l2.312-2.185L92.75 144Zm-75.498 0-5.493 5.816L14.07 152h3.18v-8Zm-.017-.016 5.493-5.815-2.172-2.053-2.987-.125-.334 7.993ZM.004 104.636l7.998.159.002-.125v-.124l-8 .09ZM55 41C20.206 41-8 69.206-8 104H8c0-25.957 21.043-47 47-47V41Zm63 63c0-34.794-28.206-63-63-63v16c25.957 0 47 21.043 47 47h16Zm-.004.727c.003-.242.004-.485.004-.727h-16c0 .182-.001.364-.003.545l15.999.182Zm-15.998.068L102 105h16c0-.174-.002-.349-.005-.522l-15.997.317ZM102 105v21h16v-21h-16Zm0 21c0 5.378-4.249 9.768-9.568 9.991l.67 15.986C106.952 151.397 118 139.991 118 126h-16Zm-3.757 23.815h.001v-.001h.001v-.001h.001v-.001h.001v-.001h.001v-.001h.001v-.001h.001v-.001h.001v-.001h.001v-.001h.001v-.001h.001v-.001h.001v-.001h.001v-.001h.001v-.001h.001v-.001h.001l.001-.001-10.987-11.63h-.001v.001h-.001v.001h-.001v.001h-.001v.001h-.001v.001h-.001v.001h-.001v.001h-.001v.001h-.001v.001h-.001v.001h-.001l-.001.001h-.001v.001h-.001v.001h-.001v.001h-.001v.001h-.001v.001l10.987 11.63ZM92 152h.75v-16H92v16Zm0-16H18v16h74v-16Zm-74.75 16H18v-16h-.75v16Zm-5.51-2.201.018.017 10.985-11.632-.016-.015-10.987 11.63Zm5.828-13.808C12.25 135.768 8 131.378 8 126H-8c0 13.991 11.047 25.397 24.899 25.977l.67-15.986ZM8 126v-21H-8v21H8Zm0-21c0-.069 0-.137.002-.205l-15.997-.317c-.003.173-.005.348-.005.522H8Zm-16-1c0 .243.001.485.004.727l16-.181A48.242 48.242 0 0 1 8 104H-8Z" mask="url(#a)"/><mask id="b" width="50" height="83" x="31" y="0" fill="#000" maskUnits="userSpaceOnUse"><path fill="#fff" d="M31 0h50v83H31z"/><path fill-rule="evenodd" d="M75.66 24.83c0 10.951-8.879 19.83-19.83 19.83-.393 0-.783-.012-1.17-.035v-1.727c.386.024.777.037 1.17.037 9.999 0 18.105-8.106 18.105-18.105 0-10-8.106-18.106-18.105-18.106-10 0-18.106 8.106-18.106 18.106 0 .393.013.783.037 1.17h-1.727A20.086 20.086 0 0 1 36 24.83C36 13.878 44.878 5 55.83 5c10.951 0 19.83 8.878 19.83 19.83ZM54.66 49v9h2V45h-2v4Zm1 29a3 3 0 1 0 0-6 3 3 0 0 0 0 6Z" clip-rule="evenodd"/></mask><path fill="red" fill-rule="evenodd" d="M75.66 24.83c0 10.951-8.879 19.83-19.83 19.83-.393 0-.783-.012-1.17-.035v-1.727c.386.024.777.037 1.17.037 9.999 0 18.105-8.106 18.105-18.105 0-10-8.106-18.106-18.105-18.106-10 0-18.106 8.106-18.106 18.106 0 .393.013.783.037 1.17h-1.727A20.086 20.086 0 0 1 36 24.83C36 13.878 44.878 5 55.83 5c10.951 0 19.83 8.878 19.83 19.83ZM54.66 49v9h2V45h-2v4Zm1 29a3 3 0 1 0 0-6 3 3 0 0 0 0 6Z" clip-rule="evenodd"/><path fill="red" d="M54.66 44.625h-5a5 5 0 0 0 4.709 4.992l.29-4.992Zm0-1.727.318-4.99a5 5 0 0 0-5.319 4.99h5ZM37.76 26v5a5 5 0 0 0 4.99-5.318l-4.99.318Zm-1.727 0-4.992.29A5 5 0 0 0 36.034 31v-5Zm18.625 23v-5a5 5 0 0 0-5 5h5Zm0 9h-5a5 5 0 0 0 5 5v-5Zm2 0v5a5 5 0 0 0 5-5h-5Zm0-13h5a5 5 0 0 0-5-5v5Zm-2 0v-5a5 5 0 0 0-5 5h5Zm0 4v5a5 5 0 0 0 5-5h-5Zm1.17.66c13.714 0 24.83-11.117 24.83-24.83h-10c0 8.19-6.64 14.83-14.83 14.83v10Zm-1.46-.043c.484.028.97.042 1.46.042v-10c-.295 0-.589-.008-.88-.025l-.58 9.983Zm-4.71-6.72v1.728h10v-1.727h-10Zm4.682 4.99c.493.032.99.048 1.489.048v-10c-.287 0-.571-.01-.852-.027l-.637 9.98Zm1.489.048c12.76 0 23.105-10.345 23.105-23.105h-10c0 7.238-5.868 13.105-13.105 13.105v10ZM78.934 24.83c0-12.761-10.345-23.106-23.105-23.106v10c7.237 0 13.105 5.868 13.105 13.106h10ZM55.83 1.724c-12.761 0-23.106 10.345-23.106 23.106h10c0-7.238 5.868-13.106 13.106-13.106v-10ZM32.724 24.83c0 .5.016.996.048 1.488l9.98-.636a13.403 13.403 0 0 1-.028-.852h-10Zm3.31 6.17h1.727V21h-1.727v10ZM31 24.83c0 .49.014.977.042 1.46l9.983-.58c-.016-.291-.025-.584-.025-.88H31ZM55.83 0C42.117 0 31 11.117 31 24.83h10C41 16.64 47.64 10 55.83 10V0Zm24.83 24.83C80.66 11.117 69.542 0 55.83 0v10c8.19 0 14.83 6.64 14.83 14.83h10ZM49.66 49v9h10v-9h-10Zm5 14h2V53h-2v10Zm7-5V45h-10v13h10Zm-5-18h-2v10h2V40Zm-7 5v4h10v-4h-10Zm5-1v10-10Zm-1 31a2 2 0 0 1 2-2v10a8 8 0 0 0 8-8h-10Zm2 2a2 2 0 0 1-2-2h10a8 8 0 0 0-8-8v10Zm2-2a2 2 0 0 1-2 2V67a8 8 0 0 0-8 8h10Zm-2-2a2 2 0 0 1 2 2h-10a8 8 0 0 0 8 8V73Z" mask="url(#b)"/><path fill="#fff" stroke="#000" stroke-linejoin="round" stroke-width="7" d="M80.46 105.75c1.69-.467 2.74-1.709 3.322-2.763.58-1.049.884-2.22 1.043-3.304.322-2.19.158-4.801-.427-7.39-.585-2.589-1.552-4.977-2.768-6.742-.601-.874-1.369-1.749-2.326-2.372-.963-.627-2.417-1.176-4.107-.709-1.69.468-2.74 1.71-3.323 2.764-.579 1.048-.884 2.22-1.043 3.304-.321 2.19-.158 4.8.428 7.39.585 2.588 1.552 4.977 2.767 6.742.602.873 1.37 1.748 2.327 2.372.962.627 2.417 1.176 4.107.708ZM29.425 105.75c-1.69-.467-2.74-1.709-3.323-2.763-.579-1.049-.884-2.22-1.043-3.304-.321-2.19-.158-4.801.427-7.39.585-2.589 1.552-4.977 2.768-6.742.601-.874 1.37-1.749 2.326-2.372.963-.627 2.418-1.176 4.108-.709 1.69.468 2.74 1.71 3.322 2.764.579 1.048.884 2.22 1.043 3.304.321 2.19.158 4.8-.427 7.39-.585 2.588-1.552 4.977-2.768 6.742-.601.873-1.37 1.748-2.326 2.372-.963.627-2.418 1.176-4.107.708Z"/><ellipse cx="7.357" cy="12.167" fill="red" rx="7.357" ry="12.167" transform="matrix(.90572 -.42389 .35928 .93323 50.07 111.237)"/><ellipse cx="7.357" cy="12.167" fill="red" rx="7.357" ry="12.167" transform="matrix(.90572 .42389 -.35928 .93323 46.743 105)"/><path fill="#FFCF25" stroke="#FFCF25" stroke-linejoin="round" stroke-width="4" d="M55.887 101.207a2.004 2.004 0 0 0-1.774 0l-12.124 6a2.002 2.002 0 0 0 .887 3.793h24.248a2 2 0 0 0 .887-3.793l-12.124-6Z"/></svg>